<svg width="29" height="28" viewBox="0 0 29 28" fill="none" xmlns="http://www.w3.org/2000/svg">
<path d="M28.5166 14C28.5166 6.26719 22.2494 0 14.5166 0C6.78379 0 0.516602 6.26719 0.516602 14C0.516602 20.5625 5.03926 26.075 11.1369 27.5898V18.2766H8.24941V14H11.1369V12.157C11.1369 7.39375 13.2916 5.18438 17.9729 5.18438C18.8588 5.18438 20.39 5.35938 21.0189 5.53437V9.40625C20.6908 9.37344 20.1166 9.35156 19.4002 9.35156C17.1033 9.35156 16.2174 10.2211 16.2174 12.4797V14H20.7893L20.0018 18.2766H16.2119V27.8961C23.1463 27.0594 28.5166 21.1586 28.5166 14Z" fill="#F8F9FA"/>
</svg>
