<svg width="25" height="28" viewBox="0 0 25 28" fill="none" xmlns="http://www.w3.org/2000/svg">
<path d="M12.2723 7.71099C8.79414 7.71099 5.98867 10.5165 5.98867 13.9946C5.98867 17.4727 8.79414 20.2782 12.2723 20.2782C15.7504 20.2782 18.5559 17.4727 18.5559 13.9946C18.5559 10.5165 15.7504 7.71099 12.2723 7.71099ZM12.2723 18.0797C10.0246 18.0797 8.18711 16.2477 8.18711 13.9946C8.18711 11.7415 10.0191 9.90942 12.2723 9.90942C14.5254 9.90942 16.3574 11.7415 16.3574 13.9946C16.3574 16.2477 14.5199 18.0797 12.2723 18.0797ZM20.2785 7.45396C20.2785 8.2688 19.6223 8.91958 18.8129 8.91958C17.998 8.91958 17.3473 8.26333 17.3473 7.45396C17.3473 6.64458 18.0035 5.98833 18.8129 5.98833C19.6223 5.98833 20.2785 6.64458 20.2785 7.45396ZM24.4402 8.94146C24.3473 6.97817 23.8988 5.23911 22.4605 3.8063C21.0277 2.37349 19.2887 1.92505 17.3254 1.82661C15.302 1.71177 9.23711 1.71177 7.21367 1.82661C5.25586 1.91958 3.5168 2.36802 2.07852 3.80083C0.640234 5.23364 0.197266 6.9727 0.0988281 8.93599C-0.0160156 10.9594 -0.0160156 17.0243 0.0988281 19.0477C0.191797 21.011 0.640234 22.75 2.07852 24.1829C3.5168 25.6157 5.25039 26.0641 7.21367 26.1625C9.23711 26.2774 15.302 26.2774 17.3254 26.1625C19.2887 26.0696 21.0277 25.6211 22.4605 24.1829C23.8934 22.75 24.3418 21.011 24.4402 19.0477C24.5551 17.0243 24.5551 10.9649 24.4402 8.94146ZM21.8262 21.2188C21.3996 22.2907 20.5738 23.1165 19.4965 23.5485C17.8832 24.1883 14.0551 24.0407 12.2723 24.0407C10.4895 24.0407 6.65586 24.1829 5.04805 23.5485C3.97617 23.1219 3.15039 22.2961 2.71836 21.2188C2.07852 19.6055 2.22617 15.7774 2.22617 13.9946C2.22617 12.2118 2.08398 8.37817 2.71836 6.77036C3.14492 5.69849 3.9707 4.8727 5.04805 4.44067C6.66133 3.80083 10.4895 3.94849 12.2723 3.94849C14.0551 3.94849 17.8887 3.8063 19.4965 4.44067C20.5684 4.86724 21.3941 5.69302 21.8262 6.77036C22.466 8.38364 22.3184 12.2118 22.3184 13.9946C22.3184 15.7774 22.466 19.611 21.8262 21.2188Z" fill="#F8F9FA"/>
</svg>
