<svg width="26" height="31" viewBox="0 0 26 31" fill="none" xmlns="http://www.w3.org/2000/svg">
<path d="M23.2666 1.75H2.26113C1.29863 1.75 0.516602 2.54297 0.516602 3.51641V24.4836C0.516602 25.457 1.29863 26.25 2.26113 26.25H23.2666C24.2291 26.25 25.0166 25.457 25.0166 24.4836V3.51641C25.0166 2.54297 24.2291 1.75 23.2666 1.75ZM7.92129 22.75H4.29004V11.0578H7.92676V22.75H7.92129ZM6.10566 9.46094C4.94082 9.46094 4.0002 8.51484 4.0002 7.35547C4.0002 6.19609 4.94082 5.25 6.10566 5.25C7.26504 5.25 8.21113 6.19609 8.21113 7.35547C8.21113 8.52031 7.27051 9.46094 6.10566 9.46094ZM21.533 22.75H17.9018V17.0625C17.9018 15.7063 17.8744 13.9617 16.015 13.9617C14.1229 13.9617 13.833 15.4383 13.833 16.9641V22.75H10.2018V11.0578H13.6854V12.6547H13.7346C14.2213 11.7359 15.408 10.768 17.1744 10.768C20.8494 10.768 21.533 13.1906 21.533 16.3406V22.75Z" fill="#F8F9FA"/>
</svg>
